<?xml version="1.0" encoding="UTF-8"?>
<svg width="593px" height="665px" viewBox="0 0 593 665" version="1.1" xmlns="http://www.w3.org/2000/svg" xmlns:xlink="http://www.w3.org/1999/xlink">
    <!-- Generator: Sketch 47 (45396) - http://www.bohemiancoding.com/sketch -->
    <title>Slice</title>
    <desc>Created with Sketch.</desc>
    <defs></defs>
    <g id="Page-1" stroke="none" stroke-width="1" fill="none" fill-rule="evenodd">
        <g id="Group-2" transform="translate(33.000000, 37.000000)">
            <circle id="Oval-2" stroke="#AFB9BA" stroke-width="20" cx="263" cy="263" r="263"></circle>
            <g id="surgeon-doctor-svgrepo-com" transform="translate(7.000000, 7.000000)" fill-rule="nonzero">
                <circle id="Oval" fill="#FD5B61" cx="256" cy="256" r="256"></circle>
                <path d="M220.316,249.432 C244.103,249.432 267.885,249.432 291.672,249.432 L292.06,254.309 L257.188,307.171 L219.73,253.782 L220.312,249.432 L220.316,249.432 Z" id="Shape" fill="#B3B3B3"></path>
                <polygon id="Shape" fill="#F0BA7D" points="220.777 236.167 220.158 265.986 169.569 293.652 169.569 395.057 254.735 395.057 339.887 395.057 339.887 293.652 292.868 264.429 290.286 234.615 220.778 236.172 220.778 236.167"></polygon>
                <path d="M197.401,149.214 C197.401,149.214 194.501,142.84 186.713,145.999 C178.926,149.154 187.064,180.649 190.039,185.046 C193.013,189.438 197.803,186.649 199.549,186.473 C202.029,205.248 202.251,218.19 209.766,226.107 C216.883,233.603 233.183,248.883 241.769,254.207 C247.584,255.436 251.921,256.156 256.004,256.373 C260.082,256.156 264.424,255.436 270.239,254.207 C278.825,248.881 295.125,233.602 302.242,226.107 C309.756,218.19 309.979,205.254 312.459,186.473 C314.205,186.649 318.99,189.438 321.969,185.046 C324.943,180.654 333.086,149.158 325.295,145.999 C317.508,142.84 314.607,149.214 314.607,149.214 C314.607,149.214 322.307,124.48 308.621,100.135 C299.245,83.448 277.855,74.796 256.009,74.159 C234.163,74.792 212.772,83.447 203.397,100.135 C189.712,124.48 197.411,149.214 197.411,149.214 L197.401,149.214 L197.401,149.214 Z" id="Shape" fill="#FED298"></path>
                <path d="M195.35,274.761 C200.795,319.743 316.381,318.469 316.648,274.766 L354.661,339.378 L324.556,502.702 C302.733,508.753 279.75,512 256,512 C236.629,512 217.771,509.834 199.632,505.76 L145.676,344.537 L195.356,274.761 L195.35,274.761 L195.35,274.761 Z" id="Shape" fill="#21D0C3"></path>
                <path d="M206.385,271.279 C72.011,314.978 110.522,293.666 80.145,442.025 C98.412,459.299 119.225,473.904 141.958,485.234 L155.445,441.226 C155.602,440.723 156.083,440.409 156.605,440.468 C157.127,440.527 157.524,440.948 157.556,441.475 L159.505,493.164 C189.287,505.297 221.858,511.994 256.005,511.994 L256.005,405.006 L206.39,271.274 L206.385,271.279 Z" id="Shape" fill="#FFFFFF"></path>
                <path d="M305.587,271.584 C440.071,314.861 401.478,293.68 431.855,442.026 C413.588,459.3 392.771,473.905 370.038,485.24 L356.551,441.232 C356.398,440.729 355.913,440.41 355.387,440.474 C354.865,440.539 354.468,440.959 354.44,441.481 L352.5,493.17 C322.718,505.303 290.142,512 256.005,512 L256.005,405.011 L305.592,271.584 L305.587,271.584 L305.587,271.584 Z" id="Shape" fill="#EEF3F7"></path>
                <path d="M346.394,409.066 C336.403,407.343 329.702,397.842 331.429,387.856 C333.152,377.866 342.653,371.164 352.639,372.886 C362.63,374.609 369.331,384.11 367.604,394.1 C365.881,404.09 356.38,410.792 346.39,409.065 L346.394,409.065 L346.394,409.066 Z" id="Shape" fill="#FEFEFE"></path>
                <path d="M346.574,408.013 C337.165,406.387 330.857,397.446 332.478,388.037 C334.104,378.628 343.045,372.315 352.454,373.941 C361.863,375.567 368.171,384.513 366.55,393.922 C364.924,403.329 355.983,409.639 346.574,408.013 Z" id="Shape" fill="#21D0C3"></path>
                <path d="M347.891,400.406 C342.69,399.51 339.194,394.554 340.094,389.354 C340.99,384.148 345.942,380.657 351.146,381.557 C356.351,382.457 359.843,387.405 358.943,392.609 C358.047,397.815 353.095,401.306 347.891,400.406 Z" id="Shape" fill="#EBECEC"></path>
                <polygon id="Shape" fill="#FEFEFE" points="349.012 382.578 353.215 383.304 355.474 370.215 351.271 369.489"></polygon>
                <path d="M208.237,412.701 L216.112,411.14 C219.46,410.475 222.232,408.503 223.997,405.86 C225.762,403.217 226.528,399.902 225.863,396.558 L216.602,349.89 C213.106,332.278 199.328,323.3 183.587,321.309 C177.555,320.546 171.232,320.824 165.103,322.039 C158.974,323.249 153.03,325.41 147.746,328.418 C133.991,336.252 124.721,349.793 128.222,367.433 L137.483,414.101 C138.148,417.449 140.12,420.216 142.763,421.986 L142.768,421.981 C145.41,423.75 148.721,424.512 152.066,423.851 L159.937,422.29 L159.295,419.043 L151.42,420.604 C148.968,421.089 146.534,420.53 144.598,419.237 L144.598,419.237 C142.658,417.94 141.213,415.906 140.723,413.454 L131.462,366.786 C128.284,350.782 136.779,338.445 149.364,331.281 C154.338,328.446 159.945,326.413 165.738,325.263 C171.526,324.117 177.488,323.859 183.174,324.574 C197.58,326.393 210.184,334.556 213.353,350.531 L222.618,397.199 C223.103,399.651 222.539,402.081 221.247,404.021 C219.95,405.956 217.916,407.406 215.464,407.891 L207.589,409.452 L208.231,412.699 L208.237,412.699 L208.237,412.701 Z" id="Shape" fill="#21D0C3"></path>
                <path d="M219.101,356.8 L217.683,349.669 C214.08,331.512 199.906,322.257 183.721,320.211 C177.573,319.435 171.131,319.712 164.89,320.95 C158.645,322.184 152.59,324.386 147.21,327.448 C133.063,335.503 123.539,349.452 127.146,367.636 L128.564,374.767 L133.968,373.691 L132.55,366.564 C129.483,351.105 137.718,339.171 149.912,332.228 C154.784,329.452 160.281,327.461 165.958,326.335 C171.635,325.208 177.478,324.954 183.048,325.66 C197.011,327.425 209.213,335.313 212.28,350.74 L213.693,357.871 L219.101,356.8 Z" id="Shape" fill="#4D4D4D"></path>
                <g id="Group" transform="translate(152.000000, 407.000000)" fill="#076673">
                    <path d="M1.704,17.234 L5.917,16.398 C6.975,17.585 8.61,18.194 10.281,17.862 C12.789,17.363 14.419,14.929 13.921,12.421 C13.427,9.918 10.988,8.287 8.48,8.786 C6.808,9.118 5.529,10.306 5.007,11.807 L0.794,12.643 L1.704,17.234 Z" id="Shape"></path>
                    <path d="M59.586,5.747 L55.378,6.583 C54.856,8.079 53.577,9.271 51.905,9.604 C49.397,10.098 46.963,8.472 46.464,5.964 C45.97,3.461 47.596,1.022 50.099,0.528 C51.767,0.196 53.407,0.809 54.459,1.992 L58.672,1.156 L59.582,5.747 L59.586,5.747 L59.586,5.747 Z" id="Shape"></path>
                </g>
                <path d="M167.458,320.534 L165.851,312.437 L162.655,313.075 L159.463,313.708 L161.089,321.883 C162.304,321.528 163.537,321.227 164.784,320.983 C165.671,320.807 166.563,320.66 167.458,320.54 L167.458,320.534 Z" id="Shape" fill="#666666"></path>
                <g id="Group" transform="translate(158.000000, 408.000000)" fill="#0F7986">
                    <path d="M2.562,11.731 C3.32,11.578 3.814,10.84 3.661,10.087 C3.513,9.329 2.774,8.835 2.017,8.983 C1.259,9.136 0.765,9.87 0.918,10.627 C1.071,11.385 1.805,11.879 2.563,11.726 L2.562,11.731 L2.562,11.731 Z" id="Shape"></path>
                    <path d="M44.219,3.449 C44.977,3.301 45.466,2.562 45.318,1.805 C45.165,1.042 44.431,0.553 43.674,0.701 C42.916,0.854 42.422,1.588 42.575,2.35 C42.723,3.108 43.462,3.597 44.224,3.449 L44.219,3.449 L44.219,3.449 Z" id="Shape"></path>
                </g>
                <path d="M347.378,400.318 C342.455,399.468 339.152,394.79 340.001,389.865 C340.851,384.946 345.529,381.644 350.454,382.493 C355.377,383.343 358.68,388.021 357.831,392.946 C356.981,397.869 352.298,401.172 347.378,400.323 L347.378,400.318 Z" id="Shape" fill="#FEFEFE"></path>
                <g id="Group" transform="translate(159.000000, 264.000000)" fill="#4D4D4D">
                    <path d="M47.432,4.715 C47.289,4.715 -2.428,5.131 5.969,48.625 L1.346,49.507 C-8.123,0.47 47.219,0.017 47.377,0.017 L47.432,4.715 Z" id="Shape"></path>
                    <path d="M146.643,0.245 C154.753,0.462 170.435,2.674 182.503,17.358 C194.313,31.722 202.595,58.109 196.401,106.487 L191.741,105.896 C197.731,59.075 189.99,33.867 178.873,20.342 C168.014,7.132 153.853,5.142 146.528,4.943 L146.639,0.246 L146.643,0.246 L146.643,0.245 L146.643,0.245 Z" id="Shape"></path>
                </g>
                <path d="M256,256.369 C256,256.369 246.153,255.847 241.719,254.536 C237.285,253.225 209.716,226.436 209.716,226.436 L210.579,186.959 L249.077,185.203 C249.077,185.203 253.659,182.473 256,183.05 C258.346,182.473 262.923,185.203 262.923,185.203 L301.421,186.959 L302.284,226.436 C302.284,226.436 274.715,253.225 270.28,254.536 C265.847,255.847 256,256.369 256,256.369 Z" id="Shape" fill="#FEFEFE"></path>
                <path d="M256,183.051 L259.118,193.938 L257.46,201.54 L260.873,219.867 L257.284,237.391 L255.996,256.37 C255.996,256.37 265.843,255.848 270.277,254.537 C274.711,253.226 302.281,226.437 302.281,226.437 L301.418,186.96 L262.92,185.204 C262.92,185.204 258.338,182.474 255.997,183.051 L256,183.051 L256,183.051 Z" id="Shape" fill="#EEF3F7"></path>
                <g id="Group" transform="translate(185.000000, 63.000000)" fill="#21D0C3">
                    <polygon id="Shape" points="9.751 78.427 28.43 124.952 26.236 125.788 7.557 79.263"></polygon>
                    <polygon id="Shape" points="133.723 79.928 116.144 126.471 113.876 125.833 131.455 79.29"></polygon>
                    <path d="M70.829,0.263 C70.829,0.263 13.132,8.918 8.453,21.019 C3.774,33.12 -0.124,30.372 1.044,44.672 C2.213,58.972 1.709,83.003 1.709,83.003 C51.194,64.962 90.916,64.307 139.944,83.003 C139.944,83.003 139.441,58.972 140.609,44.672 C141.778,30.372 137.879,33.121 133.2,21.019 C128.521,8.918 70.824,0.263 70.824,0.263 C70.824,0.263 70.829,0.263 70.829,0.263 Z" id="Shape"></path>
                </g>
                <path d="M255.829,63.263 L255.548,63.305 C255.548,63.305 312.512,77.79 313.098,82.186 C313.685,86.583 310.927,90.74 317.583,93.003 C324.239,95.267 322.455,105.654 322.455,105.654 L321.42,145.172 L321.743,145.55 L324.949,145.993 C324.949,145.993 324.446,121.962 325.614,107.662 C326.782,93.362 322.884,96.111 318.205,84.009 C313.526,71.908 255.829,63.253 255.829,63.253 L255.829,63.263 L255.829,63.263 Z" id="Shape" fill="#15BDB2"></path>
            </g>
            <path d="M61.125,597.308594 L72.7265625,558.8125 L84.46875,558.8125 L66.6445312,610 L55.640625,610 L37.8867188,558.8125 L49.59375,558.8125 L61.125,597.308594 Z M99.3398438,610 L89.1445312,610 L89.1445312,571.960938 L99.3398438,571.960938 L99.3398438,610 Z M88.546875,562.117188 C88.546875,560.593742 89.0566355,559.339849 90.0761719,558.355469 C91.0957082,557.371089 92.4843662,556.878906 94.2421875,556.878906 C95.1093793,556.878906 95.8945277,557.007811 96.5976562,557.265625 C97.3007848,557.523439 97.898435,557.886716 98.390625,558.355469 C98.882815,558.824221 99.2636705,559.380856 99.5332031,560.025391 C99.8027357,560.669925 99.9375,561.367184 99.9375,562.117188 C99.9375,562.890629 99.8027357,563.599606 99.5332031,564.244141 C99.2636705,564.888675 98.882815,565.44531 98.390625,565.914062 C97.898435,566.382815 97.3007848,566.746092 96.5976562,567.003906 C95.8945277,567.26172 95.1093793,567.390625 94.2421875,567.390625 C93.3749957,567.390625 92.5898473,567.26172 91.8867188,567.003906 C91.1835902,566.746092 90.58594,566.382815 90.09375,565.914062 C89.60156,565.44531 89.2207045,564.888675 88.9511719,564.244141 C88.6816393,563.599606 88.546875,562.890629 88.546875,562.117188 Z M129.082031,581.488281 C128.566404,581.417968 127.962894,581.353516 127.271484,581.294922 C126.580075,581.236328 125.964846,581.207031 125.425781,581.207031 C123.433584,581.207031 121.822272,581.541012 120.591797,582.208984 C119.361322,582.876956 118.453128,583.843744 117.867188,585.109375 L117.867188,610 L107.707031,610 L107.707031,571.960938 L117.304688,571.960938 L117.585938,576.496094 C118.54688,574.855461 119.730462,573.57227 121.136719,572.646484 C122.542976,571.720698 124.183584,571.257812 126.058594,571.257812 C126.597659,571.257812 127.166013,571.304687 127.763672,571.398438 C128.361331,571.492188 128.847654,571.597656 129.222656,571.714844 L129.082031,581.488281 Z M147.890625,562.609375 L147.890625,571.960938 L154.394531,571.960938 L154.394531,579.414062 L147.890625,579.414062 L147.890625,598.398438 C147.890625,599.195316 147.972655,599.85156 148.136719,600.367188 C148.300782,600.882815 148.546873,601.287108 148.875,601.580078 C149.203127,601.873048 149.607419,602.072265 150.087891,602.177734 C150.568362,602.283204 151.136715,602.335938 151.792969,602.335938 C152.402347,602.335938 152.958982,602.3125 153.462891,602.265625 C153.966799,602.21875 154.406248,602.160157 154.78125,602.089844 L154.78125,609.789062 C153.937496,610.046876 153.017583,610.263671 152.021484,610.439453 C151.025386,610.615235 149.894538,610.703125 148.628906,610.703125 C146.964835,610.703125 145.46485,610.498049 144.128906,610.087891 C142.792962,609.677732 141.650395,609.027348 140.701172,608.136719 C139.751948,607.246089 139.019534,606.085945 138.503906,604.65625 C137.988279,603.226555 137.730469,601.503916 137.730469,599.488281 L137.730469,579.414062 L132.175781,579.414062 L132.175781,571.960938 L137.730469,571.960938 L137.730469,562.609375 L147.890625,562.609375 Z M182.835938,606.132812 C181.640619,607.585945 180.187509,608.710934 178.476562,609.507812 C176.765616,610.304691 174.750012,610.703125 172.429688,610.703125 C170.554678,610.703125 168.843758,610.439456 167.296875,609.912109 C165.749992,609.384763 164.419927,608.55274 163.306641,607.416016 C162.193354,606.279291 161.332034,604.814462 160.722656,603.021484 C160.113278,601.228507 159.808594,599.078138 159.808594,596.570312 L159.808594,571.960938 L169.96875,571.960938 L169.96875,596.640625 C169.96875,597.695318 170.103514,598.597652 170.373047,599.347656 C170.642579,600.09766 171.017576,600.70117 171.498047,601.158203 C171.978518,601.615237 172.546872,601.949218 173.203125,602.160156 C173.859378,602.371095 174.585934,602.476562 175.382812,602.476562 C177.210947,602.476562 178.699213,602.160159 179.847656,601.527344 C180.996099,600.894528 181.874997,600.015631 182.484375,598.890625 L182.484375,571.960938 L192.679688,571.960938 L192.679688,610 L183.117188,610 L182.835938,606.132812 Z M222.386719,610 C221.917966,609.085933 221.578126,607.949226 221.367188,606.589844 C220.335932,607.738287 219.041023,608.710934 217.482422,609.507812 C215.92382,610.304691 214.019543,610.703125 211.769531,610.703125 C209.941397,610.703125 208.236336,610.421878 206.654297,609.859375 C205.072258,609.296872 203.701178,608.511724 202.541016,607.503906 C201.380854,606.496089 200.47266,605.294929 199.816406,603.900391 C199.160153,602.505852 198.832031,600.976571 198.832031,599.3125 C198.832031,597.320303 199.201168,595.550789 199.939453,594.003906 C200.677738,592.457024 201.785149,591.144537 203.261719,590.066406 C204.738289,588.988276 206.572255,588.167972 208.763672,587.605469 C210.955089,587.042966 213.503892,586.761719 216.410156,586.761719 L220.945312,586.761719 L220.945312,584.582031 C220.945312,582.82421 220.494145,581.417974 219.591797,580.363281 C218.689449,579.308588 217.265635,578.78125 215.320312,578.78125 C213.609366,578.78125 212.267583,579.191402 211.294922,580.011719 C210.322261,580.832035 209.835938,581.957024 209.835938,583.386719 L199.675781,583.386719 C199.675781,581.746086 200.056637,580.187507 200.818359,578.710938 C201.580082,577.234368 202.664055,575.945318 204.070312,574.84375 C205.47657,573.742182 207.175771,572.869144 209.167969,572.224609 C211.160166,571.580075 213.386706,571.257812 215.847656,571.257812 C218.050792,571.257812 220.089834,571.53906 221.964844,572.101562 C223.839853,572.664065 225.457024,573.501948 226.816406,574.615234 C228.175788,575.728521 229.236324,577.123038 229.998047,578.798828 C230.759769,580.474618 231.140625,582.42577 231.140625,584.652344 L231.140625,600.753906 C231.140625,601.832037 231.175781,602.798824 231.246094,603.654297 C231.316407,604.50977 231.410156,605.2832 231.527344,605.974609 C231.644532,606.666019 231.796874,607.287107 231.984375,607.837891 C232.171876,608.388675 232.39453,608.910154 232.652344,609.402344 L232.652344,610 L222.386719,610 Z M213.984375,602.933594 C214.851567,602.933594 215.654293,602.828126 216.392578,602.617188 C217.130863,602.406249 217.792966,602.130861 218.378906,601.791016 C218.964847,601.45117 219.474607,601.058596 219.908203,600.613281 C220.341799,600.167967 220.687499,599.71094 220.945312,599.242188 L220.945312,592.703125 L216.761719,592.703125 C215.425775,592.703125 214.26563,592.849608 213.28125,593.142578 C212.29687,593.435548 211.488284,593.8457 210.855469,594.373047 C210.222653,594.900393 209.753908,595.521481 209.449219,596.236328 C209.14453,596.951175 208.992188,597.730465 208.992188,598.574219 C208.992188,599.83985 209.437496,600.882808 210.328125,601.703125 C211.218754,602.523442 212.437492,602.933594 213.984375,602.933594 Z M249.667969,610 L239.472656,610 L239.472656,556 L249.667969,556 L249.667969,610 Z M276.632813,610 L276.632813,558.8125 L292.382813,558.8125 C295.828142,558.8125 298.986314,559.404291 301.857422,560.587891 C304.72853,561.77149 307.189443,563.435536 309.240234,565.580078 C311.291026,567.72462 312.890619,570.29686 314.039063,573.296875 C315.187506,576.29689 315.761719,579.624982 315.761719,583.28125 L315.761719,585.601562 C315.761719,589.257831 315.193365,592.580063 314.056641,595.568359 C312.919916,598.556656 311.314463,601.123036 309.240234,603.267578 C307.166005,605.41212 304.687514,607.070307 301.804688,608.242188 C298.921861,609.414068 295.746111,610 292.277344,610 L276.632813,610 Z M287.179687,567.355469 L287.179687,601.527344 L292.277344,601.527344 C296.44924,601.527344 299.624989,600.150404 301.804687,597.396484 C303.984386,594.642564 305.074219,590.710963 305.074219,585.601562 L305.074219,583.210938 C305.074219,578.007786 303.996105,574.064467 301.839844,571.380859 C299.683583,568.697252 296.531271,567.355469 292.382812,567.355469 L287.179687,567.355469 Z M321.175781,590.628906 C321.175781,587.863267 321.574215,585.296887 322.371094,582.929688 C323.167973,580.562488 324.328117,578.517587 325.851562,576.794922 C327.375008,575.072257 329.255848,573.718755 331.494141,572.734375 C333.732433,571.749995 336.281236,571.257812 339.140625,571.257812 C342.023452,571.257812 344.589832,571.749995 346.839844,572.734375 C349.089855,573.718755 350.982414,575.072257 352.517578,576.794922 C354.052742,578.517587 355.218746,580.562488 356.015625,582.929688 C356.812504,585.296887 357.210938,587.863267 357.210938,590.628906 L357.210938,591.367188 C357.210938,594.156264 356.812504,596.728504 356.015625,599.083984 C355.218746,601.439465 354.052742,603.478507 352.517578,605.201172 C350.982414,606.923837 349.101574,608.27148 346.875,609.244141 C344.648426,610.216802 342.093764,610.703125 339.210938,610.703125 C336.328111,610.703125 333.767589,610.216802 331.529297,609.244141 C329.291004,608.27148 327.404305,606.923837 325.869141,605.201172 C324.333977,603.478507 323.167973,601.439465 322.371094,599.083984 C321.574215,596.728504 321.175781,594.156264 321.175781,591.367188 L321.175781,590.628906 Z M331.335938,591.367188 C331.335938,592.91407 331.476561,594.367181 331.757812,595.726562 C332.039064,597.085944 332.490231,598.263667 333.111328,599.259766 C333.732425,600.255864 334.541011,601.046872 335.537109,601.632812 C336.533208,602.218753 337.757805,602.511719 339.210938,602.511719 C340.617195,602.511719 341.818354,602.218753 342.814453,601.632812 C343.810552,601.046872 344.624997,600.255864 345.257812,599.259766 C345.890628,598.263667 346.347655,597.085944 346.628906,595.726562 C346.910158,594.367181 347.050781,592.91407 347.050781,591.367188 L347.050781,590.628906 C347.050781,589.128899 346.910158,587.705085 346.628906,586.357422 C346.347655,585.009759 345.890628,583.826177 345.257812,582.806641 C344.624997,581.787104 343.804693,580.978519 342.796875,580.380859 C341.789057,579.7832 340.57032,579.484375 339.140625,579.484375 C337.734368,579.484375 336.533208,579.7832 335.537109,580.380859 C334.541011,580.978519 333.732425,581.787104 333.111328,582.806641 C332.490231,583.826177 332.039064,585.009759 331.757812,586.357422 C331.476561,587.705085 331.335938,589.128899 331.335938,590.628906 L331.335938,591.367188 Z M379.289062,602.511719 C380.226567,602.511719 381.082027,602.376954 381.855469,602.107422 C382.62891,601.837889 383.296872,601.457034 383.859375,600.964844 C384.421878,600.472654 384.861327,599.880863 385.177734,599.189453 C385.494142,598.498043 385.664062,597.718754 385.6875,596.851562 L395.214844,596.851562 C395.191406,598.867198 394.769535,600.724601 393.949219,602.423828 C393.128902,604.123055 392.015632,605.587884 390.609375,606.818359 C389.203118,608.048834 387.544931,609.003903 385.634766,609.683594 C383.7246,610.363285 381.66798,610.703125 379.464844,610.703125 C376.511704,610.703125 373.933605,610.205083 371.730469,609.208984 C369.527333,608.212886 367.699226,606.853524 366.246094,605.130859 C364.792961,603.408195 363.703129,601.380871 362.976562,599.048828 C362.249996,596.716785 361.886719,594.203138 361.886719,591.507812 L361.886719,590.523438 C361.886719,587.828112 362.249996,585.308605 362.976562,582.964844 C363.703129,580.621082 364.792961,578.58204 366.246094,576.847656 C367.699226,575.113273 369.521473,573.748052 371.712891,572.751953 C373.904308,571.755854 376.464829,571.257812 379.394531,571.257812 C381.738293,571.257812 383.876943,571.603512 385.810547,572.294922 C387.74415,572.986332 389.402337,573.976556 390.785156,575.265625 C392.167976,576.554694 393.24609,578.119131 394.019531,579.958984 C394.792973,581.798837 395.191406,583.855457 395.214844,586.128906 L385.6875,586.128906 C385.664062,585.214839 385.505861,584.35352 385.212891,583.544922 C384.91992,582.736324 384.503909,582.033206 383.964844,581.435547 C383.425779,580.837888 382.757816,580.363283 381.960938,580.011719 C381.164059,579.660154 380.250005,579.484375 379.21875,579.484375 C377.74218,579.484375 376.535161,579.789059 375.597656,580.398438 C374.660152,581.007816 373.927737,581.822261 373.400391,582.841797 C372.873044,583.861333 372.515626,585.039056 372.328125,586.375 C372.140624,587.710944 372.046875,589.093743 372.046875,590.523438 L372.046875,591.507812 C372.046875,592.960945 372.140624,594.355462 372.328125,595.691406 C372.515626,597.02735 372.873044,598.199214 373.400391,599.207031 C373.927737,600.214849 374.660152,601.017575 375.597656,601.615234 C376.535161,602.212894 377.765617,602.511719 379.289062,602.511719 Z M413.179688,562.609375 L413.179688,571.960938 L419.683594,571.960938 L419.683594,579.414062 L413.179688,579.414062 L413.179688,598.398438 C413.179688,599.195316 413.261718,599.85156 413.425781,600.367188 C413.589845,600.882815 413.835936,601.287108 414.164062,601.580078 C414.492189,601.873048 414.896482,602.072265 415.376953,602.177734 C415.857424,602.283204 416.425778,602.335938 417.082031,602.335938 C417.691409,602.335938 418.248044,602.3125 418.751953,602.265625 C419.255862,602.21875 419.695311,602.160157 420.070312,602.089844 L420.070312,609.789062 C419.226558,610.046876 418.306646,610.263671 417.310547,610.439453 C416.314448,610.615235 415.1836,610.703125 413.917969,610.703125 C412.253898,610.703125 410.753913,610.498049 409.417969,610.087891 C408.082025,609.677732 406.939458,609.027348 405.990234,608.136719 C405.041011,607.246089 404.308596,606.085945 403.792969,604.65625 C403.277341,603.226555 403.019531,601.503916 403.019531,599.488281 L403.019531,579.414062 L397.464844,579.414062 L397.464844,571.960938 L403.019531,571.960938 L403.019531,562.609375 L413.179688,562.609375 Z M422.707031,590.628906 C422.707031,587.863267 423.105465,585.296887 423.902344,582.929688 C424.699223,580.562488 425.859367,578.517587 427.382812,576.794922 C428.906258,575.072257 430.787098,573.718755 433.025391,572.734375 C435.263683,571.749995 437.812486,571.257812 440.671875,571.257812 C443.554702,571.257812 446.121082,571.749995 448.371094,572.734375 C450.621105,573.718755 452.513664,575.072257 454.048828,576.794922 C455.583992,578.517587 456.749996,580.562488 457.546875,582.929688 C458.343754,585.296887 458.742188,587.863267 458.742188,590.628906 L458.742188,591.367188 C458.742188,594.156264 458.343754,596.728504 457.546875,599.083984 C456.749996,601.439465 455.583992,603.478507 454.048828,605.201172 C452.513664,606.923837 450.632824,608.27148 448.40625,609.244141 C446.179676,610.216802 443.625014,610.703125 440.742188,610.703125 C437.859361,610.703125 435.298839,610.216802 433.060547,609.244141 C430.822254,608.27148 428.935555,606.923837 427.400391,605.201172 C425.865227,603.478507 424.699223,601.439465 423.902344,599.083984 C423.105465,596.728504 422.707031,594.156264 422.707031,591.367188 L422.707031,590.628906 Z M432.867188,591.367188 C432.867188,592.91407 433.007811,594.367181 433.289062,595.726562 C433.570314,597.085944 434.021481,598.263667 434.642578,599.259766 C435.263675,600.255864 436.072261,601.046872 437.068359,601.632812 C438.064458,602.218753 439.289055,602.511719 440.742188,602.511719 C442.148445,602.511719 443.349604,602.218753 444.345703,601.632812 C445.341802,601.046872 446.156247,600.255864 446.789062,599.259766 C447.421878,598.263667 447.878905,597.085944 448.160156,595.726562 C448.441408,594.367181 448.582031,592.91407 448.582031,591.367188 L448.582031,590.628906 C448.582031,589.128899 448.441408,587.705085 448.160156,586.357422 C447.878905,585.009759 447.421878,583.826177 446.789062,582.806641 C446.156247,581.787104 445.335943,580.978519 444.328125,580.380859 C443.320307,579.7832 442.10157,579.484375 440.671875,579.484375 C439.265618,579.484375 438.064458,579.7832 437.068359,580.380859 C436.072261,580.978519 435.263675,581.787104 434.642578,582.806641 C434.021481,583.826177 433.570314,585.009759 433.289062,586.357422 C433.007811,587.705085 432.867188,589.128899 432.867188,590.628906 L432.867188,591.367188 Z M486.375,581.488281 C485.859372,581.417968 485.255863,581.353516 484.564453,581.294922 C483.873043,581.236328 483.257815,581.207031 482.71875,581.207031 C480.726553,581.207031 479.115241,581.541012 477.884766,582.208984 C476.654291,582.876956 475.746097,583.843744 475.160156,585.109375 L475.160156,610 L465,610 L465,571.960938 L474.597656,571.960938 L474.878906,576.496094 C475.839849,574.855461 477.02343,573.57227 478.429688,572.646484 C479.835945,571.720698 481.476553,571.257812 483.351563,571.257812 C483.890628,571.257812 484.458981,571.304687 485.056641,571.398438 C485.6543,571.492188 486.140623,571.597656 486.515625,571.714844 L486.375,581.488281 Z" id="Virtual-Doctor" fill="#000000"></path>
        </g>
    </g>
</svg>