<?xml version="1.0" encoding="UTF-8"?>
<svg width="593px" height="665px" viewBox="0 0 593 665" version="1.1" xmlns="http://www.w3.org/2000/svg" xmlns:xlink="http://www.w3.org/1999/xlink">
    <!-- Generator: Sketch 47 (45396) - http://www.bohemiancoding.com/sketch -->
    <title>Slice</title>
    <desc>Created with Sketch.</desc>
    <defs></defs>
    <g id="Page-1" stroke="none" stroke-width="1" fill="none" fill-rule="evenodd">
        <g id="Group-2" transform="translate(33.000000, 37.000000)">
            <circle id="Oval-2" stroke="#AFB9BA" stroke-width="20" cx="263" cy="263" r="263"></circle>
            <g id="surgeon-doctor-svgrepo-com" transform="translate(7.000000, 7.000000)" fill-rule="nonzero">
                <circle id="Oval" fill="#FD5B61" cx="256" cy="256" r="256"></circle>
                <path d="M220.316,249.432 C244.103,249.432 267.885,249.432 291.672,249.432 L292.06,254.309 L257.188,307.171 L219.73,253.782 L220.312,249.432 L220.316,249.432 Z" id="Shape" fill="#B3B3B3"></path>
                <polygon id="Shape" fill="#F0BA7D" points="220.777 236.167 220.158 265.986 169.569 293.652 169.569 395.057 254.735 395.057 339.887 395.057 339.887 293.652 292.868 264.429 290.286 234.615 220.778 236.172 220.778 236.167"></polygon>
                <path d="M197.401,149.214 C197.401,149.214 194.501,142.84 186.713,145.999 C178.926,149.154 187.064,180.649 190.039,185.046 C193.013,189.438 197.803,186.649 199.549,186.473 C202.029,205.248 202.251,218.19 209.766,226.107 C216.883,233.603 233.183,248.883 241.769,254.207 C247.584,255.436 251.921,256.156 256.004,256.373 C260.082,256.156 264.424,255.436 270.239,254.207 C278.825,248.881 295.125,233.602 302.242,226.107 C309.756,218.19 309.979,205.254 312.459,186.473 C314.205,186.649 318.99,189.438 321.969,185.046 C324.943,180.654 333.086,149.158 325.295,145.999 C317.508,142.84 314.607,149.214 314.607,149.214 C314.607,149.214 322.307,124.48 308.621,100.135 C299.245,83.448 277.855,74.796 256.009,74.159 C234.163,74.792 212.772,83.447 203.397,100.135 C189.712,124.48 197.411,149.214 197.411,149.214 L197.401,149.214 L197.401,149.214 Z" id="Shape" fill="#FED298"></path>
                <path d="M195.35,274.761 C200.795,319.743 316.381,318.469 316.648,274.766 L354.661,339.378 L324.556,502.702 C302.733,508.753 279.75,512 256,512 C236.629,512 217.771,509.834 199.632,505.76 L145.676,344.537 L195.356,274.761 L195.35,274.761 L195.35,274.761 Z" id="Shape" fill="#21D0C3"></path>
                <path d="M206.385,271.279 C72.011,314.978 110.522,293.666 80.145,442.025 C98.412,459.299 119.225,473.904 141.958,485.234 L155.445,441.226 C155.602,440.723 156.083,440.409 156.605,440.468 C157.127,440.527 157.524,440.948 157.556,441.475 L159.505,493.164 C189.287,505.297 221.858,511.994 256.005,511.994 L256.005,405.006 L206.39,271.274 L206.385,271.279 Z" id="Shape" fill="#FFFFFF"></path>
                <path d="M305.587,271.584 C440.071,314.861 401.478,293.68 431.855,442.026 C413.588,459.3 392.771,473.905 370.038,485.24 L356.551,441.232 C356.398,440.729 355.913,440.41 355.387,440.474 C354.865,440.539 354.468,440.959 354.44,441.481 L352.5,493.17 C322.718,505.303 290.142,512 256.005,512 L256.005,405.011 L305.592,271.584 L305.587,271.584 L305.587,271.584 Z" id="Shape" fill="#EEF3F7"></path>
                <path d="M346.394,409.066 C336.403,407.343 329.702,397.842 331.429,387.856 C333.152,377.866 342.653,371.164 352.639,372.886 C362.63,374.609 369.331,384.11 367.604,394.1 C365.881,404.09 356.38,410.792 346.39,409.065 L346.394,409.065 L346.394,409.066 Z" id="Shape" fill="#FEFEFE"></path>
                <path d="M346.574,408.013 C337.165,406.387 330.857,397.446 332.478,388.037 C334.104,378.628 343.045,372.315 352.454,373.941 C361.863,375.567 368.171,384.513 366.55,393.922 C364.924,403.329 355.983,409.639 346.574,408.013 Z" id="Shape" fill="#21D0C3"></path>
                <path d="M347.891,400.406 C342.69,399.51 339.194,394.554 340.094,389.354 C340.99,384.148 345.942,380.657 351.146,381.557 C356.351,382.457 359.843,387.405 358.943,392.609 C358.047,397.815 353.095,401.306 347.891,400.406 Z" id="Shape" fill="#EBECEC"></path>
                <polygon id="Shape" fill="#FEFEFE" points="349.012 382.578 353.215 383.304 355.474 370.215 351.271 369.489"></polygon>
                <path d="M208.237,412.701 L216.112,411.14 C219.46,410.475 222.232,408.503 223.997,405.86 C225.762,403.217 226.528,399.902 225.863,396.558 L216.602,349.89 C213.106,332.278 199.328,323.3 183.587,321.309 C177.555,320.546 171.232,320.824 165.103,322.039 C158.974,323.249 153.03,325.41 147.746,328.418 C133.991,336.252 124.721,349.793 128.222,367.433 L137.483,414.101 C138.148,417.449 140.12,420.216 142.763,421.986 L142.768,421.981 C145.41,423.75 148.721,424.512 152.066,423.851 L159.937,422.29 L159.295,419.043 L151.42,420.604 C148.968,421.089 146.534,420.53 144.598,419.237 L144.598,419.237 C142.658,417.94 141.213,415.906 140.723,413.454 L131.462,366.786 C128.284,350.782 136.779,338.445 149.364,331.281 C154.338,328.446 159.945,326.413 165.738,325.263 C171.526,324.117 177.488,323.859 183.174,324.574 C197.58,326.393 210.184,334.556 213.353,350.531 L222.618,397.199 C223.103,399.651 222.539,402.081 221.247,404.021 C219.95,405.956 217.916,407.406 215.464,407.891 L207.589,409.452 L208.231,412.699 L208.237,412.699 L208.237,412.701 Z" id="Shape" fill="#21D0C3"></path>
                <path d="M219.101,356.8 L217.683,349.669 C214.08,331.512 199.906,322.257 183.721,320.211 C177.573,319.435 171.131,319.712 164.89,320.95 C158.645,322.184 152.59,324.386 147.21,327.448 C133.063,335.503 123.539,349.452 127.146,367.636 L128.564,374.767 L133.968,373.691 L132.55,366.564 C129.483,351.105 137.718,339.171 149.912,332.228 C154.784,329.452 160.281,327.461 165.958,326.335 C171.635,325.208 177.478,324.954 183.048,325.66 C197.011,327.425 209.213,335.313 212.28,350.74 L213.693,357.871 L219.101,356.8 Z" id="Shape" fill="#4D4D4D"></path>
                <g id="Group" transform="translate(152.000000, 407.000000)" fill="#076673">
                    <path d="M1.704,17.234 L5.917,16.398 C6.975,17.585 8.61,18.194 10.281,17.862 C12.789,17.363 14.419,14.929 13.921,12.421 C13.427,9.918 10.988,8.287 8.48,8.786 C6.808,9.118 5.529,10.306 5.007,11.807 L0.794,12.643 L1.704,17.234 Z" id="Shape"></path>
                    <path d="M59.586,5.747 L55.378,6.583 C54.856,8.079 53.577,9.271 51.905,9.604 C49.397,10.098 46.963,8.472 46.464,5.964 C45.97,3.461 47.596,1.022 50.099,0.528 C51.767,0.196 53.407,0.809 54.459,1.992 L58.672,1.156 L59.582,5.747 L59.586,5.747 L59.586,5.747 Z" id="Shape"></path>
                </g>
                <path d="M167.458,320.534 L165.851,312.437 L162.655,313.075 L159.463,313.708 L161.089,321.883 C162.304,321.528 163.537,321.227 164.784,320.983 C165.671,320.807 166.563,320.66 167.458,320.54 L167.458,320.534 Z" id="Shape" fill="#666666"></path>
                <g id="Group" transform="translate(158.000000, 408.000000)" fill="#0F7986">
                    <path d="M2.562,11.731 C3.32,11.578 3.814,10.84 3.661,10.087 C3.513,9.329 2.774,8.835 2.017,8.983 C1.259,9.136 0.765,9.87 0.918,10.627 C1.071,11.385 1.805,11.879 2.563,11.726 L2.562,11.731 L2.562,11.731 Z" id="Shape"></path>
                    <path d="M44.219,3.449 C44.977,3.301 45.466,2.562 45.318,1.805 C45.165,1.042 44.431,0.553 43.674,0.701 C42.916,0.854 42.422,1.588 42.575,2.35 C42.723,3.108 43.462,3.597 44.224,3.449 L44.219,3.449 L44.219,3.449 Z" id="Shape"></path>
                </g>
                <path d="M347.378,400.318 C342.455,399.468 339.152,394.79 340.001,389.865 C340.851,384.946 345.529,381.644 350.454,382.493 C355.377,383.343 358.68,388.021 357.831,392.946 C356.981,397.869 352.298,401.172 347.378,400.323 L347.378,400.318 Z" id="Shape" fill="#FEFEFE"></path>
                <g id="Group" transform="translate(159.000000, 264.000000)" fill="#4D4D4D">
                    <path d="M47.432,4.715 C47.289,4.715 -2.428,5.131 5.969,48.625 L1.346,49.507 C-8.123,0.47 47.219,0.017 47.377,0.017 L47.432,4.715 Z" id="Shape"></path>
                    <path d="M146.643,0.245 C154.753,0.462 170.435,2.674 182.503,17.358 C194.313,31.722 202.595,58.109 196.401,106.487 L191.741,105.896 C197.731,59.075 189.99,33.867 178.873,20.342 C168.014,7.132 153.853,5.142 146.528,4.943 L146.639,0.246 L146.643,0.246 L146.643,0.245 L146.643,0.245 Z" id="Shape"></path>
                </g>
                <path d="M256,256.369 C256,256.369 246.153,255.847 241.719,254.536 C237.285,253.225 209.716,226.436 209.716,226.436 L210.579,186.959 L249.077,185.203 C249.077,185.203 253.659,182.473 256,183.05 C258.346,182.473 262.923,185.203 262.923,185.203 L301.421,186.959 L302.284,226.436 C302.284,226.436 274.715,253.225 270.28,254.536 C265.847,255.847 256,256.369 256,256.369 Z" id="Shape" fill="#FEFEFE"></path>
                <path d="M256,183.051 L259.118,193.938 L257.46,201.54 L260.873,219.867 L257.284,237.391 L255.996,256.37 C255.996,256.37 265.843,255.848 270.277,254.537 C274.711,253.226 302.281,226.437 302.281,226.437 L301.418,186.96 L262.92,185.204 C262.92,185.204 258.338,182.474 255.997,183.051 L256,183.051 L256,183.051 Z" id="Shape" fill="#EEF3F7"></path>
                <g id="Group" transform="translate(185.000000, 63.000000)" fill="#21D0C3">
                    <polygon id="Shape" points="9.751 78.427 28.43 124.952 26.236 125.788 7.557 79.263"></polygon>
                    <polygon id="Shape" points="133.723 79.928 116.144 126.471 113.876 125.833 131.455 79.29"></polygon>
                    <path d="M70.829,0.263 C70.829,0.263 13.132,8.918 8.453,21.019 C3.774,33.12 -0.124,30.372 1.044,44.672 C2.213,58.972 1.709,83.003 1.709,83.003 C51.194,64.962 90.916,64.307 139.944,83.003 C139.944,83.003 139.441,58.972 140.609,44.672 C141.778,30.372 137.879,33.121 133.2,21.019 C128.521,8.918 70.824,0.263 70.824,0.263 C70.824,0.263 70.829,0.263 70.829,0.263 Z" id="Shape"></path>
                </g>
                <path d="M255.829,63.263 L255.548,63.305 C255.548,63.305 312.512,77.79 313.098,82.186 C313.685,86.583 310.927,90.74 317.583,93.003 C324.239,95.267 322.455,105.654 322.455,105.654 L321.42,145.172 L321.743,145.55 L324.949,145.993 C324.949,145.993 324.446,121.962 325.614,107.662 C326.782,93.362 322.884,96.111 318.205,84.009 C313.526,71.908 255.829,63.253 255.829,63.253 L255.829,63.263 L255.829,63.263 Z" id="Shape" fill="#15BDB2"></path>
            </g>
        </g>
    </g>
</svg>